<svg width="25" height="21" viewBox="0 0 25 21" xmlns="http://www.w3.org/2000/svg">
<path d="M20.6506 7.81892C20.4657 7.81892 20.2809 7.74855 20.1398 7.60745C19.8577 7.3253 19.8577 6.86778 20.1398 6.58563L22.8159 3.90953L20.1398 1.23343C19.8577 0.951283 19.8577 0.493763 20.1398 0.211613C20.422 -0.0705376 20.8791 -0.0705376 21.1613 0.211613L24.3483 3.39865C24.6305 3.6808 24.6305 4.13832 24.3483 4.42047L21.1613 7.60751C21.0202 7.74855 20.8355 7.81892 20.6506 7.81892Z"/>
<path d="M13.5376 7.82026C13.3984 7.82026 13.2579 7.7804 13.134 7.69648C12.8032 7.4734 12.7164 7.02416 12.9396 6.69344L15.0918 3.5064C15.2262 3.30774 15.4504 3.18848 15.6904 3.18848H22.2441C22.6431 3.18848 22.9665 3.51205 22.9665 3.91083C22.9665 4.3096 22.6431 4.63317 22.2441 4.63317H16.0742L14.1368 7.50229C13.9972 7.70891 13.7694 7.82026 13.5376 7.82026Z"/>
<path d="M7.27604 17.0918H0.722348C0.323357 17.0918 0 16.7682 0 16.3694C0 15.9706 0.323357 15.647 0.722348 15.647H6.89227L9.01305 12.5067C9.23651 12.1763 9.68537 12.0887 10.0159 12.3125C10.3466 12.5356 10.4335 12.9848 10.2102 13.3156L7.87455 16.7738C7.74028 16.9724 7.51607 17.0918 7.27604 17.0918Z"/>
<path d="M20.6506 20.2984C20.4657 20.2984 20.2809 20.228 20.1398 20.0869C19.8577 19.8048 19.8577 19.3473 20.1398 19.0651L22.8159 16.389L20.1398 13.7129C19.8577 13.4308 19.8577 12.9733 20.1398 12.6911C20.422 12.409 20.8791 12.409 21.1613 12.6911L24.3483 15.8781C24.6305 16.1603 24.6305 16.6178 24.3483 16.9L21.1613 20.087C21.0202 20.228 20.8355 20.2984 20.6506 20.2984Z"/>
<path d="M22.2442 17.1106H15.6905C15.4505 17.1106 15.2263 16.9914 15.0919 16.7927L6.89227 4.65075H0.722348C0.323357 4.65075 0 4.32718 0 3.9284C0 3.52963 0.323357 3.20605 0.722348 3.20605H7.27604C7.51607 3.20605 7.74028 3.32532 7.8746 3.52398L16.0743 15.6659H22.2442C22.6432 15.6659 22.9666 15.9895 22.9666 16.3883C22.9666 16.7871 22.6432 17.1106 22.2442 17.1106Z"/>
</svg>
